<svg width="1440" height="805" viewBox="0 0 1440 805" fill="none" xmlns="http://www.w3.org/2000/svg">
<circle cx="19.1007" cy="36.1007" r="36.1007" fill="#5E1EE6" fill-opacity="0.1"/>
<circle cx="19.1007" cy="167.376" r="36.1007" fill="#5E1EE6" fill-opacity="0.1"/>
<circle cx="143.812" cy="51.4161" r="36.1007" fill="#5E1EE6" fill-opacity="0.1"/>
<circle cx="143.812" cy="182.691" r="36.1007" fill="#5E1EE6" fill-opacity="0.1"/>
<circle cx="268.524" cy="66.7315" r="36.1007" fill="#5E1EE6" fill-opacity="0.1"/>
<circle cx="268.524" cy="198.007" r="36.1007" fill="#5E1EE6" fill-opacity="0.1"/>
<circle cx="393.235" cy="82.047" r="36.1007" fill="#5E1EE6" fill-opacity="0.1"/>
<circle cx="393.235" cy="213.322" r="36.1007" fill="#5E1EE6" fill-opacity="0.1"/>
<circle cx="517.946" cy="97.3624" r="36.1007" fill="#5E1EE6" fill-opacity="0.1"/>
<circle cx="517.946" cy="228.638" r="36.1007" fill="#5E1EE6" fill-opacity="0.1"/>
<circle cx="642.658" cy="112.678" r="36.1007" fill="#5E1EE6" fill-opacity="0.1"/>
<circle cx="642.658" cy="243.953" r="36.1007" fill="#5E1EE6" fill-opacity="0.1"/>
<circle cx="767.369" cy="127.993" r="36.1007" fill="#5E1EE6" fill-opacity="0.1"/>
<circle cx="767.369" cy="259.268" r="36.1007" fill="#5E1EE6" fill-opacity="0.1"/>
<circle cx="892.081" cy="143.309" r="36.1007" fill="#5E1EE6" fill-opacity="0.1"/>
<circle cx="892.081" cy="274.584" r="36.1007" fill="#5E1EE6" fill-opacity="0.1"/>
<circle cx="1016.79" cy="158.624" r="36.1007" fill="#5E1EE6" fill-opacity="0.1"/>
<circle cx="1016.79" cy="289.899" r="36.1007" fill="#5E1EE6" fill-opacity="0.1"/>
<circle r="36.3104" transform="matrix(1 8.74228e-08 8.74228e-08 -1 419.31 768.583)" fill="#5E1EE6" fill-opacity="0.1"/>
<circle r="36.3104" transform="matrix(1 8.74228e-08 8.74228e-08 -1 419.31 636.546)" fill="#5E1EE6" fill-opacity="0.1"/>
<circle r="36.3104" transform="matrix(1 8.74228e-08 8.74228e-08 -1 544.746 753.179)" fill="#5E1EE6" fill-opacity="0.1"/>
<circle r="36.3104" transform="matrix(1 8.74228e-08 8.74228e-08 -1 544.746 621.141)" fill="#5E1EE6" fill-opacity="0.1"/>
<circle r="36.3104" transform="matrix(1 8.74228e-08 8.74228e-08 -1 670.182 737.775)" fill="#5E1EE6" fill-opacity="0.1"/>
<circle r="36.3104" transform="matrix(1 8.74228e-08 8.74228e-08 -1 670.182 605.737)" fill="#5E1EE6" fill-opacity="0.1"/>
<circle r="36.3104" transform="matrix(1 8.74228e-08 8.74228e-08 -1 795.618 722.37)" fill="#5E1EE6" fill-opacity="0.1"/>
<circle r="36.3104" transform="matrix(1 8.74228e-08 8.74228e-08 -1 795.618 590.332)" fill="#5E1EE6" fill-opacity="0.1"/>
<circle r="36.3104" transform="matrix(1 8.74228e-08 8.74228e-08 -1 921.054 706.966)" fill="#5E1EE6" fill-opacity="0.1"/>
<circle r="36.3104" transform="matrix(1 8.74228e-08 8.74228e-08 -1 921.054 574.928)" fill="#5E1EE6" fill-opacity="0.1"/>
<circle r="36.3104" transform="matrix(1 8.74228e-08 8.74228e-08 -1 1046.49 691.561)" fill="#5E1EE6" fill-opacity="0.1"/>
<circle r="36.3104" transform="matrix(1 8.74228e-08 8.74228e-08 -1 1046.49 559.524)" fill="#5E1EE6" fill-opacity="0.1"/>
<circle r="36.3104" transform="matrix(1 8.74228e-08 8.74228e-08 -1 1171.93 676.157)" fill="#5E1EE6" fill-opacity="0.1"/>
<circle r="36.3104" transform="matrix(1 8.74228e-08 8.74228e-08 -1 1171.93 544.119)" fill="#5E1EE6" fill-opacity="0.1"/>
<circle r="36.3104" transform="matrix(1 8.74228e-08 8.74228e-08 -1 1297.36 660.753)" fill="#5E1EE6" fill-opacity="0.1"/>
<circle r="36.3104" transform="matrix(1 8.74228e-08 8.74228e-08 -1 1297.36 528.715)" fill="#5E1EE6" fill-opacity="0.1"/>
<circle r="36.3104" transform="matrix(1 8.74228e-08 8.74228e-08 -1 1422.8 645.348)" fill="#5E1EE6" fill-opacity="0.1"/>
<circle r="36.3104" transform="matrix(1 8.74228e-08 8.74228e-08 -1 1422.8 513.31)" fill="#5E1EE6" fill-opacity="0.1"/>
</svg>
